<?xml version="1.0" encoding="utf-8"?>
<!-- Generator: Adobe Illustrator 16.0.0, SVG Export Plug-In . SVG Version: 6.00 Build 0)  -->
<!DOCTYPE svg PUBLIC "-//W3C//DTD SVG 1.0//EN" "http://www.w3.org/TR/2001/REC-SVG-20010904/DTD/svg10.dtd">
<svg version="1.0" id="Layer_1" xmlns="http://www.w3.org/2000/svg" xmlns:xlink="http://www.w3.org/1999/xlink" x="0px" y="0px"
	 width="700px" height="311.451px" viewBox="0 0 700 311.451" enable-background="new 0 0 700 311.451" xml:space="preserve">
<g>
	<path d="M166.52,241.621h-7.168v6.648h7.989v1.997h-10.369v-18.44h9.959v1.998h-7.579v5.827h7.168V241.621z"/>
	<path d="M178.641,250.266v-18.44h2.6l5.909,9.33c1.368,2.161,2.436,4.104,3.311,5.991l0.055-0.027
		c-0.219-2.462-0.273-4.705-0.273-7.578v-7.716h2.243v18.44h-2.407l-5.854-9.356c-1.286-2.053-2.518-4.159-3.447-6.156l-0.082,0.027
		c0.137,2.325,0.191,4.542,0.191,7.606v7.879H178.641z"/>
	<path d="M204.852,232.073c1.45-0.22,3.174-0.384,5.062-0.384c3.42,0,5.855,0.794,7.47,2.299c1.642,1.505,2.599,3.639,2.599,6.62
		c0,3.01-0.93,5.473-2.653,7.169c-1.724,1.724-4.569,2.653-8.153,2.653c-1.696,0-3.119-0.082-4.323-0.219V232.073z M207.233,248.378
		c0.602,0.109,1.478,0.137,2.407,0.137c5.089,0,7.853-2.846,7.853-7.824c0.027-4.351-2.436-7.114-7.47-7.114
		c-1.23,0-2.161,0.11-2.79,0.247V248.378z"/>
	<path d="M240.831,241.621h-7.168v6.648h7.989v1.997h-10.369v-18.44h9.959v1.998h-7.579v5.827h7.168V241.621z"/>
	<path d="M255.934,244.466l-1.915,5.8h-2.462l6.265-18.44h2.873l6.292,18.44h-2.544l-1.97-5.8H255.934z M261.981,242.606
		l-1.806-5.308c-0.411-1.204-0.685-2.299-0.958-3.365h-0.055c-0.273,1.094-0.574,2.216-0.931,3.338l-1.806,5.335H261.981z"/>
	<path d="M277.905,232.073c1.204-0.247,2.928-0.384,4.569-0.384c2.544,0,4.186,0.466,5.335,1.505
		c0.93,0.821,1.449,2.079,1.449,3.502c0,2.436-1.531,4.05-3.475,4.706v0.082c1.423,0.492,2.271,1.806,2.709,3.721
		c0.602,2.572,1.04,4.351,1.423,5.062h-2.463c-0.301-0.52-0.711-2.106-1.23-4.405c-0.548-2.544-1.532-3.502-3.693-3.584h-2.244
		v7.989h-2.38V232.073z M280.285,240.471h2.436c2.544,0,4.158-1.395,4.158-3.502c0-2.38-1.724-3.42-4.24-3.447
		c-1.149,0-1.97,0.109-2.354,0.22V240.471z"/>
	<path d="M303.213,231.826v18.44h-2.381v-18.44H303.213z"/>
	<path d="M315.581,250.266v-18.44h2.599l5.91,9.33c1.368,2.161,2.435,4.104,3.311,5.991l0.055-0.027
		c-0.219-2.462-0.273-4.705-0.273-7.578v-7.716h2.243v18.44h-2.408l-5.854-9.356c-1.286-2.053-2.517-4.159-3.447-6.156l-0.082,0.027
		c0.137,2.325,0.191,4.542,0.191,7.606v7.879H315.581z"/>
	<path d="M355.827,249.446c-1.067,0.383-3.174,1.012-5.663,1.012c-2.792,0-5.089-0.711-6.895-2.435
		c-1.587-1.532-2.572-3.995-2.572-6.867c0.027-5.499,3.803-9.521,9.987-9.521c2.134,0,3.803,0.466,4.597,0.849l-0.575,1.942
		c-0.984-0.438-2.216-0.794-4.076-0.794c-4.488,0-7.415,2.791-7.415,7.415c0,4.678,2.817,7.441,7.114,7.441
		c1.56,0,2.626-0.219,3.174-0.492v-5.499h-3.749v-1.916h6.074V249.446z"/>
	<path d="M397.224,242.167c-0.137-2.571-0.301-5.663-0.273-7.961h-0.082c-0.629,2.161-1.396,4.459-2.325,7.004l-3.256,8.946h-1.806
		l-2.982-8.782c-0.876-2.6-1.614-4.979-2.134-7.168h-0.055c-0.055,2.298-0.191,5.39-0.356,8.152l-0.492,7.907h-2.271l1.286-18.44
		h3.036l3.146,8.92c0.767,2.271,1.396,4.295,1.86,6.21h0.082c0.466-1.86,1.122-3.885,1.942-6.21l3.283-8.92h3.037l1.149,18.44
		h-2.326L397.224,242.167z"/>
	<path d="M427.647,240.855c0,6.347-3.857,9.712-8.563,9.712c-4.869,0-8.289-3.775-8.289-9.356c0-5.855,3.639-9.686,8.563-9.686
		C424.392,231.525,427.647,235.383,427.647,240.855z M413.339,241.156c0,3.939,2.134,7.469,5.882,7.469
		c3.776,0,5.91-3.475,5.91-7.66c0-3.666-1.915-7.497-5.883-7.497C415.309,233.467,413.339,237.106,413.339,241.156z"/>
	<path d="M454.488,242.167c-0.137-2.571-0.301-5.663-0.273-7.961h-0.082c-0.63,2.161-1.396,4.459-2.325,7.004l-3.256,8.946h-1.806
		l-2.982-8.782c-0.876-2.6-1.614-4.979-2.134-7.168h-0.055c-0.055,2.298-0.191,5.39-0.356,8.152l-0.492,7.907h-2.271l1.286-18.44
		h3.036l3.146,8.92c0.767,2.271,1.396,4.295,1.86,6.21h0.082c0.466-1.86,1.122-3.885,1.942-6.21l3.283-8.92h3.037l1.149,18.44
		h-2.326L454.488,242.167z"/>
	<path d="M478.703,241.621h-7.168v6.648h7.988v1.997h-10.369v-18.44h9.959v1.998h-7.578v5.827h7.168V241.621z"/>
	<path d="M490.823,250.266v-18.44h2.6l5.909,9.33c1.368,2.161,2.435,4.104,3.311,5.991l0.055-0.027
		c-0.219-2.462-0.273-4.705-0.273-7.578v-7.716h2.243v18.44h-2.407l-5.855-9.356c-1.285-2.053-2.517-4.159-3.447-6.156l-0.082,0.027
		c0.137,2.325,0.191,4.542,0.191,7.606v7.879H490.823z"/>
	<path d="M520.537,233.851h-5.608v-2.025h13.652v2.025h-5.636v16.415h-2.408V233.851z"/>
	<path d="M538.349,247.366c1.067,0.657,2.627,1.204,4.268,1.204c2.436,0,3.858-1.286,3.858-3.146c0-1.724-0.985-2.708-3.475-3.666
		c-3.01-1.066-4.87-2.626-4.87-5.226c0-2.872,2.38-5.007,5.964-5.007c1.888,0,3.256,0.438,4.077,0.903l-0.657,1.942
		c-0.602-0.328-1.833-0.876-3.502-0.876c-2.517,0-3.475,1.505-3.475,2.764c0,1.724,1.122,2.571,3.666,3.557
		c3.119,1.204,4.706,2.709,4.706,5.417c0,2.846-2.106,5.308-6.457,5.308c-1.778,0-3.721-0.52-4.705-1.177L538.349,247.366z"/>
</g>
<g>
	<path d="M225.996,271.882c0,2.713-1.966,4.351-5.206,4.351h-3.423v4.023h-1.347v-12.742h4.77
		C224.03,267.514,225.996,269.152,225.996,271.882z M224.648,271.882c0-2.038-1.347-3.203-3.896-3.203h-3.386v6.371h3.386
		C223.302,275.05,224.648,273.885,224.648,271.882z"/>
	<path d="M252.476,267.514v12.742h-1.329v-5.88h-7.974v5.88h-1.347v-12.742h1.347v5.679h7.974v-5.679H252.476z"/>
	<path d="M268.232,273.885c0-3.714,2.84-6.48,6.699-6.48c3.822,0,6.681,2.748,6.681,6.48c0,3.731-2.858,6.48-6.681,6.48
		C271.072,280.366,268.232,277.598,268.232,273.885z M280.266,273.885c0-3.04-2.276-5.279-5.334-5.279
		c-3.076,0-5.37,2.239-5.37,5.279s2.294,5.279,5.37,5.279C277.989,279.165,280.266,276.925,280.266,273.885z"/>
	<path d="M299.845,268.679h-4.479v-1.165h10.304v1.165h-4.479v11.577h-1.347V268.679z"/>
	<path d="M319.426,273.885c0-3.714,2.84-6.48,6.699-6.48c3.822,0,6.681,2.748,6.681,6.48c0,3.731-2.858,6.48-6.681,6.48
		C322.266,280.366,319.426,277.598,319.426,273.885z M331.459,273.885c0-3.04-2.276-5.279-5.334-5.279
		c-3.076,0-5.37,2.239-5.37,5.279s2.294,5.279,5.37,5.279C329.183,279.165,331.459,276.925,331.459,273.885z"/>
	<path d="M357.537,273.885h1.292v4.86c-1.201,1.074-2.912,1.62-4.679,1.62c-3.877,0-6.717-2.749-6.717-6.48
		c0-3.732,2.84-6.48,6.735-6.48c1.93,0,3.604,0.619,4.733,1.838l-0.838,0.856c-1.074-1.057-2.348-1.493-3.841-1.493
		c-3.149,0-5.461,2.239-5.461,5.279c0,3.021,2.312,5.279,5.442,5.279c1.22,0,2.349-0.273,3.332-0.983V273.885z"/>
	<path d="M384.07,280.256l-2.912-4.096c-0.328,0.036-0.655,0.055-1.02,0.055h-3.423v4.041h-1.347v-12.742h4.77
		c3.24,0,5.206,1.638,5.206,4.368c0,2.003-1.056,3.404-2.912,4.005l3.112,4.369H384.07z M383.998,271.882
		c0-2.038-1.348-3.203-3.896-3.203h-3.387v6.389h3.387C382.65,275.068,383.998,273.885,383.998,271.882z"/>
	<path d="M409.257,276.852h-7.1l-1.528,3.404h-1.402l5.825-12.742h1.329l5.825,12.742h-1.42L409.257,276.852z M408.766,275.76
		l-3.059-6.845l-3.058,6.845H408.766z"/>
	<path d="M437.029,271.882c0,2.713-1.966,4.351-5.206,4.351H428.4v4.023h-1.347v-12.742h4.77
		C435.063,267.514,437.029,269.152,437.029,271.882z M435.683,271.882c0-2.038-1.348-3.203-3.896-3.203H428.4v6.371h3.387
		C434.335,275.05,435.683,273.885,435.683,271.882z"/>
	<path d="M463.509,267.514v12.742h-1.329v-5.88h-7.974v5.88h-1.347v-12.742h1.347v5.679h7.974v-5.679H463.509z"/>
	<path d="M484.764,275.851v4.405h-1.329v-4.405l-5.097-8.337h1.438l4.369,7.153l4.369-7.153h1.347L484.764,275.851z"/>
</g>
<linearGradient id="SVGID_1_" gradientUnits="userSpaceOnUse" x1="116.7622" y1="118.2969" x2="556.9229" y2="118.2969" gradientTransform="matrix(0.9999 0.014 -0.014 0.9999 24.0683 6.3066)">
	<stop  offset="0" style="stop-color:#F8F1F2"/>
	<stop  offset="1" style="stop-color:#F1D1D0"/>
</linearGradient>
<path fill="url(#SVGID_1_)" d="M142.479,137.129c-3.032,0.281-4,2.568-3.313,5.722c0.37,1.696,1.296,3.666,0.813,5.109
	c-2.154,6.425,28.078,6.139,33.177,9.866c-0.853,2.591-34.444,4.056-33.632,6.233c4.822,12.904,2.097,9.987,2.582,11.666
	c2.149,7.525,4.501,14.982,6.836,22.455c0.551,1.767,0.914,3.852,2.042,5.116c1.646,1.811,1.563,4.136,1.48,6.447
	c8.947-2.013,18.347-2.393,27.181-2.593c17.661-0.386,35.259,0.591,52.876,1.157c40.783,1.316,81.559,1.521,122.332,3.178
	c1.726-1.616,3.84-2.671,4.635-5.174c2.859,3.24,5.046,4.688,9.006,1.988c2.018-1.376,6.088-0.822,9.065-0.89
	c6.994-0.157,14.41-1.63,20.926,2.621c0.963,0.631,2.554,0.574,3.786,0.329c2.64-0.531,5.263-1.272,7.846-2.12
	c4.91-1.607,9.289-1.607,11.828,3.896c2.29-1.5,4.233-3.669,6.303-3.854c1.816-0.173,3.699,2.007,5.675,2.872
	c1.337,0.591,2.903,1.063,4.343,0.944c8.478-0.686,16.962-1.473,25.43-2.417c2.835-0.323,5.42-0.804,6.035,4.073
	c-1.841,0.28-3.689,0.464-5.532,0.704l16.316,0.801c1.098-0.655,2.117-1.454,2.91-2.371c2.233-2.573,4.65-3.649,7.741-3.579
	c0.904,0.014,1.808-0.113,2.703-0.167c11.169-0.701,22.347-1.301,33.521-2.142c2.403-0.184,4.931-0.866,7.129-1.945
	c4.029-2.001,7.636-2.495,11.374,0.439c1.009,0.807,3.353,1.163,4.248,0.478c1.729-1.315,3.291-1.696,4.767-1.564
	c1.548-5.162,3.517-10.206,5.777-15.148c-6.425-3.479-12.615-1.09-19.218,0.329c-5.748,1.23-11.949-0.085-17.942-0.355
	c-8.232-0.358-16.453-0.795-24.678-1.205c-0.019-0.703-0.032-1.408-0.054-2.112c4.202-0.479,8.399-1.092,12.607-1.404
	c4.008-0.303,8.032-0.303,12.049-0.426c0.089-0.565,0.175-1.127,0.27-1.694c-1.241-0.605-2.428-1.547-3.728-1.741
	c-2.654-0.389-5.373-0.65-8.041-0.459c-5.855,0.437-10.382-1.682-13.702-6.74c0.715-2.912,2.846-2.916,4.758-2.166
	c3.184,1.241,6.016,0.504,9.104-0.678c1.988-0.769,4.658-1.21,6.466-0.438c5.823,2.479,11.062,1.249,16.17-1.825
	c4.251,2.564,8.467,5.024,12.602,7.628c2.114,1.323,3.983,1.478,6.233-0.031c1.443-0.968,3.339-1.573,5.03-1.604
	c3.271-0.081,6.533-0.031,9.808,0.047c3.336-5.764,6.904-11.379,10.508-16.823c-1.17-0.533-2.335-0.742-3.509-0.801
	c1.084,1.125,0.404,3.874-1.716,4.038c-18.263,1.464-36.461,2.352-54.139-2.751c-0.508-0.143-0.817-0.434-1.047-0.774
	c-13.459-13.077-11.571-36.991-9.684-56.576c-0.078-0.012-0.161-0.02-0.229-0.051c-0.885-0.236-1.621-0.959-1.529-2.198l0.28-4.023
	c-0.283-0.008-0.566-0.019-0.842-0.024c-1.119-0.014-2.228-0.099-3.334-0.154l-0.054,0.745c-4.216-0.205-8.464-0.171-12.618-0.769
	c-1.313-0.19-3.279-2.013-3.35-3.231c-0.132-2.386,1.912-2.451,3.905-2.458c5.575-0.005,11.161-0.287,16.729-0.397l0.356-5.056
	c-1.643,0.047-3.261-0.418-4.823-2.128c-0.294-0.323-1.297,0.03-1.963,0.115c-7.334,0.851-14.598,0.704-21.854-0.6
	c-2.792-0.503-5.976-0.61-8.649,0.287c-6.893,2.32-13.278,1.748-19.585-1.411c-1.314-0.664-3.274-1.486-4.329-0.921
	c-3.273,1.775-6.272-0.521-8.924-0.048c-3.305,0.601-6.387,1.343-9.688,0.673c-1.526-0.313-3.144-0.167-4.68-0.431
	c-2.519-0.437-3.083-2.174-2.599-4.979L448.65,75c-0.346-1.667-0.658-3.132-1.072-5.089c5.537-1.773,10.684,0.036,15.687-0.581
	c5.462-0.666,9.633,4.979,15.674,2.592c-0.998-4.31-2.673-6.854-7.113-7.192c-2.163-0.165-5.785-1.729-5.942-3.117
	c-0.56-4.599-3.536-4.917-6.584-5.577c-2.396-0.521-4.815-1.012-7.266-1.278c-8.671-0.923-17.63-0.682-25.963-2.871
	c-11.433-2.996-23.233-1.472-34.66-3.77c-4.775-0.957-9.767-0.9-14.68-1.167c-5.563-0.317-11.15-0.448-16.731-0.737
	c-8.96-0.465-17.93-0.991-26.885-1.51c-2.823-0.162-5.006,0.43-6.984,3.211c-2.875,4.058-17.115,5.974-20.799,3.256
	c-0.695-0.517-1.08-1.495-1.768-2.027c-1.699-1.31-3.356-3.148-5.291-3.553c-2.732-0.576-6.595-1.244-8.371,0.256
	c-3.468,2.922-6.408,6.637-10.121,9.409c-0.219,0.158,0.19,1.28,0.587,3.531c-3.416-2.441-5.55-3.962-6.994-4.997
	c-3.452-0.167-6.257-0.634-9.015-0.369c-4.563,0.446-9.499-1.251-13.561,2.818c-0.698,0.702-2.113,0.776-3.209,0.842
	c-13.44,0.804-26.903,1.221-40.313,2.43c-8.039,0.729-16.011,2.631-23.989,4.148c-1.266,0.238-2.419,1.22-3.642,1.868
	c-1.134,5.042-2.228,9.926-3.197,14.259c6.113,5.374,13.278,0.41,20.058,4.016c-6.039,3.085-12.913,1.437-14.994,9.736
	c-1.81,7.214-0.9,12.355,5.106,15.898c-5.155,8.129-4.837,10.494,1.892,16.403c1.324,1.159,2.773,2.158,4.103,3.178
	c-0.777,1.768-1.382,3.152-2.271,5.175c4.309,1.756,8.135,3.317,11.963,4.874c-4.057,0.597-8.057,0.834-11.866,0.123
	c-8.845-1.666-17.356-5.626-26.752-3.128c-0.412,0.113-0.918,0.067-1.315-0.081C155.661,133.422,149.089,136.503,142.479,137.129z
	 M458.041,186.974c-1.05,0-2.102-0.004-3.161-0.012c-0.013-0.187-0.018-0.386-0.034-0.575c1.039-0.132,2.069-0.25,3.1-0.383
	C457.972,186.325,458.011,186.652,458.041,186.974z M466.36,176.516c-0.314,0.472-0.596,0.982-0.98,1.381
	c-0.047,0.054-0.892-0.456-0.863-0.634c0.077-0.534,0.414-1.021,0.66-1.578C465.715,176.063,466.038,176.293,466.36,176.516z
	 M334.522,49.975l1.475-1.631c0.395,0.424,1.077,0.814,1.111,1.28c0.029,0.438-0.608,0.946-1.081,1.603
	C335.41,50.718,334.965,50.349,334.522,49.975z M350.002,51.774c3.451-3.666,3.451-3.666,6.231,1.411
	C353.839,52.642,352.129,52.253,350.002,51.774z M251.536,61.902c7.689-4.293,9.66-3.86,11.273,2.171
	C259.177,63.375,255.865,62.738,251.536,61.902z M377.444,74.533c0.457-0.446,0.938-1.278,1.354-1.26
	c0.693,0.032,1.352,0.603,2.448,1.173c-1.016,0.807-1.627,1.605-1.956,1.5C378.595,75.734,378.058,75.028,377.444,74.533z
	 M315.248,89.412c-4.121,0.157-7.38,0.283-10.647,0.406c0.043-0.86,0.079-1.72,0.116-2.577
	C307.741,91.539,311.395,83.704,315.248,89.412z M462.002,93.151c-1.365-0.356-2.742-0.702-4.113-1.046
	c0.117-0.557,0.231-1.113,0.345-1.67c1.381,0.242,2.757,0.483,4.135,0.727C462.247,91.828,462.125,92.481,462.002,93.151z
	 M450.665,92.474l-9.748-0.481c0-0.354,0.021-0.702,0.032-1.053l9.818,0.481C450.732,91.774,450.695,92.119,450.665,92.474z
	 M481.002,91.011c-2.951,2.708-5.16,2.101-8.083-0.148c1.327-1.724,2.454-3.2,4.126-5.374
	C478.661,87.742,479.753,89.271,481.002,91.011z M433.657,84.81c-5.013,1.433-11.605,1.165-17.127-1.008
	C420.835,82.382,428.254,82.987,433.657,84.81z M446.18,85.095l3.962,0.196c-0.047,0.489-0.11,0.985-0.17,1.478
	c-1.312-0.22-2.609-0.442-3.924-0.66C446.096,85.771,446.142,85.432,446.18,85.095z M409.586,82.575
	c0.043,0.597,0.095,1.191,0.148,1.789c-1.237,0.424-2.488,1.201-3.724,1.215c-2.563,0.018-5.285,0.022-7.152-3.336
	C402.995,80.828,406.291,81.62,409.586,82.575z M391.145,83.054c-6.843,4.343-8.824,3.897-10.672-2.722
	C384.44,81.345,387.431,82.107,391.145,83.054z M370.926,82.181c-6.761,4.594,4.41,1.289-2.747,0.342
	C374.858,73.523,363.792,80.786,370.926,82.181z M260.113,89.343c0.565-10.538-1.917-17.175-5.74-15.938
	c-0.575-4.156,3.827,9.045-4.427,7.75c4.373-2.564,7.418-2.766,10.732-2.35c2.594,0.329,5.272,0.15,7.907,0
	c5.286-0.308,10.577-0.747,15.857-1.12c0.896-0.065,1.99,0.292,2.658-0.141c4.965-3.231,8.81-0.826,12.576,2.173
	c0.01-0.006,0.017-0.012,0.021-0.02c0.063,0.01,0.134,0.013,0.198,0.02c4.959-3.846,10.446-0.769,15.634-1.65
	c2.578-0.446,5.188-0.541,7.793-0.733c3.462-0.259,6.943-1.847,10.316,0.842c1.084,0.864,3.395,0.271,5.095-0.02
	c1.979-0.333,3.886-1.276,5.871-1.52c0.836-0.099,2.002,0.711,2.562,1.484c0.343,0.47,0.208-6.251-0.27-5.726
	c-2.438,2.669-4.925-1.236-8.323-3.04c-6.144-3.255-18.805,2.97-24.983,3.04c-5.89,0.07-6.024,10.874-11.291,7.854
	c-0.683-0.386-1.579-0.393-2.403-0.531c-0.042,0.034-0.079,0.05-0.116,0.078c-0.037-0.028-0.064-0.051-0.103-0.078
	c-1.189,1.381-2.368,2.762-3.409,3.993c8.994-9.29,1.688-11.264,2.518-8.278c-7.632,2.366-9.389,1.639-16.653,2.027
	c-3.087,0.16-3.979-0.826-7.403-2.027c0.556-2.712-28.646,1.169-21.281,7.091C249.396,81.935,259.881,93.613,260.113,89.343z
	 M423.764,135.188c0.099-0.638,0.214-1.288,0.313-1.93c1.664,0.365,3.328,0.723,5.837,1.274
	C426.873,138.076,425.365,136.222,423.764,135.188z"/>
<linearGradient id="SVGID_2_" gradientUnits="userSpaceOnUse" x1="332.835" y1="56.5171" x2="395.4299" y2="218.3479">
	<stop  offset="0.005" style="stop-color:#661F1D"/>
	<stop  offset="0.4925" style="stop-color:#F19679"/>
	<stop  offset="1" style="stop-color:#661F1D"/>
</linearGradient>
<path fill="url(#SVGID_2_)" d="M648.68,121.977h-0.59c-0.266,0-0.461-0.098-0.59,0.031c-9.584,6.433-19.232,9.565-28.945,9.565
	l-4.727-0.238c-11.291-1.182-23.301-4.024-36.033-8.488c-8.533-2.886-17.754-5.588-27.664-8.083
	c-9.912-2.492-20.512-3.746-31.799-3.746c-21.004,0-40.631,5.643-58.875,16.931c-12.34,7.615-24.285,17.113-35.836,28.663
	c-6.039,6.301-10.109,9.366-12.207,9.366h-0.395c-1.969-1-2.953-3.589-2.953-8.186c0-1.705,0.064-3.173,0.197-4.487l0.197-0.57
	c0.26-2.492,0.719-5.435,1.377-8.85c1.443-6.168,2.166-12.267,2.166-18.307c0-4.332-0.953-7.741-2.855-10.236
	c-1.904-2.492-4.035-3.74-6.398-3.74l-2.166,0.198c-3.283,0.659-7.088,4.268-11.42,10.83c-3.545,5.384-7.418,12.012-11.617,19.888
	c-0.266-1.443-0.395-3.477-0.395-6.104c0-5.643,0.592-13.912,1.771-24.81c0.656-4.987,0.986-9.058,0.986-12.208
	c0-1.575-0.068-2.945-0.197-4.126c-0.527-3.544-3.086-5.292-7.68-6.292h-0.395c-3.543,0-7.088,3.535-10.632,10.624
	c-3.021,6.565-5.778,13.453-8.27,20.67c-4.203,10.897-7.944,21.725-11.224,32.486c0.787-6.694,2-14.439,3.643-23.235
	c1.64-8.793,3.378-16.343,5.218-22.644c0.262-1.049,0.394-2.034,0.394-2.954c0-1.836-0.658-3.413-1.969-4.726
	c-1.84-1.443-3.873-2.166-6.104-2.166c-3.283,0-5.581,1.772-6.892,5.316c-1.429,4.382-2.857,9.988-4.286,16.788
	c-0.081,0.181-0.159,0.354-0.241,0.54c-4.726,10.765-9.943,20.97-15.654,30.618c-5.71,9.648-11.783,14.866-18.213,15.654
	c-5.252-0.129-8.172-2.132-8.763-6.006c-0.59-3.87-0.886-6.857-0.886-8.959c0-4.593,0.655-9.713,1.969-15.358l1.97,0.197
	c7.088,0,13.454-5.052,19.1-15.161c2.886-5.513,4.331-10.762,4.331-15.752l-0.196-3.544c-0.788-6.037-4.99-9.254-12.602-9.648
	c-5.778,0.132-10.83,2.431-15.162,6.892c-5.907,5.778-12.404,10.701-19.493,14.768c-18.38,10.504-33.212,16.574-44.5,18.214
	c-11.291,1.643-20.216,2.461-26.778,2.461c-15.229,0-34-3.806-56.314-11.42c-12.866-4.593-22.545-7.251-29.043-7.974
	c-6.497-0.72-10.534-1.083-12.109-1.083c-9.978,0-19.955,3.415-29.929,10.239c-0.265,0.132-0.394,0.625-0.394,1.28
	c0,0.526,0.129,0.886,0.394,0.886h0.591c0.261,0,0.458-0.163,0.591-0.295c9.58-6.431,19.229-9.697,28.944-9.697l4.528,0.172
	c11.288,1.313,23.167,4.19,35.64,8.651c8.531,2.889,17.653,5.542,27.369,7.969c9.713,2.431,21.198,3.639,34.458,3.639
	c25.598-0.655,51.785-9.911,78.563-27.765c-5.251,9.845-7.876,20.348-7.876,31.504c0,5.778,0.917,11.355,2.757,16.736
	c2.363,6.959,7.35,11.552,14.965,13.783c1.442,0.265,2.821,0.394,4.135,0.394c7.611,0,14.109-3.938,19.493-11.814
	c5.454-7.745,10.864-17.449,16.229-29.094c-1.697,9.493-2.911,18.017-3.628,25.549c-0.262,1.446-0.395,2.824-0.395,4.135
	c0,2.233,0.329,4.332,0.985,6.301c0.92,3.15,3.282,4.858,7.088,5.119c2.886-0.129,5.021-1.738,6.399-4.824
	c1.378-3.083,2.591-6.661,3.643-10.731l1.379-4.726c3.15-11.026,6.036-19.819,8.663-26.385c4.332-12.076,7.94-20.872,10.829-26.385
	c0.129,0.265,0.197,1.052,0.197,2.363c-0.264,4.332-0.59,7.417-0.984,9.254c-0.133,2.627-0.395,5.384-0.787,8.27
	c-0.788,6.171-1.182,12.011-1.182,17.524l0.197,6.222c0.393,7.221,3.346,11.129,8.859,12.129h0.592c1.969,0,3.477-0.773,4.527-2.087
	c1.051-1.311,2.23-3.603,3.545-6.753c1.705-4.067,4.855-10.004,9.451-17.751c2.098-3.279,3.54-5.79,4.985-7.497
	c1.049,0.132,1.245,0.674,1.245,1.659c0,0.985,0,1.674,0,2.068c0,1.446,0.134,3.218-0.261,5.316
	c-1.313,7.482-1.803,13.915-1.803,19.296c0,15.229,5.136,22.84,15.245,22.84c2.756,0,5.091-0.655,6.931-1.969
	c1.838-1.311,4.482-3.806,7.898-7.482c10.895-11.42,21.865-20.936,32.893-28.551c19.031-13.125,39.844-19.69,62.424-19.69
	c11.154,0,21.627,1.215,31.406,3.643c9.777,2.43,18.935,5.088,27.47,7.974c12.863,4.597,22.611,7.221,29.242,7.876
	c6.627,0.658,10.664,0.984,12.109,0.984c10.105,0,20.213-3.412,30.322-10.239c0.262-0.129,0.395-0.229,0.395-0.622
	C649.271,122.206,649.074,121.977,648.68,121.977z M299.575,108.749c3.673-6.627,6.823-9.944,9.451-9.944l0.984,0.197
	c1.704,1.181,2.56,3.347,2.56,6.498c0,4.203-1.313,8.861-3.938,13.98c-2.102,4.07-4.597,7.384-7.482,9.944
	c-2.889,2.56-5.71,3.839-8.467,3.839l-2.363-0.197C292.813,123.485,295.898,115.378,299.575,108.749z"/>
</svg>
